<mxfile host="65bd71144e">
    <diagram id="JxlQQZyBLcNscvFYBXoo" name="Page-1">
        <mxGraphModel dx="1758" dy="550" grid="1" gridSize="10" guides="1" tooltips="1" connect="1" arrows="1" fold="1" page="1" pageScale="1" pageWidth="850" pageHeight="1100" math="0" shadow="0">
            <root>
                <mxCell id="0"/>
                <mxCell id="1" parent="0"/>
                <mxCell id="2" value="Total files&lt;br style=&quot;font-size: 14px;&quot;&gt;4,370" style="rounded=0;whiteSpace=wrap;html=1;fontSize=14;fontStyle=0" parent="1" vertex="1">
                    <mxGeometry x="560" y="80" width="140" height="80" as="geometry"/>
                </mxCell>
                <mxCell id="3" value="Incorrect processed&lt;br style=&quot;font-size: 14px;&quot;&gt;files: 1,237" style="rounded=0;whiteSpace=wrap;html=1;fontSize=14;fontStyle=0" parent="1" vertex="1">
                    <mxGeometry x="340" y="220" width="140" height="80" as="geometry"/>
                </mxCell>
                <mxCell id="4" value="Correct processed&lt;br style=&quot;font-size: 14px;&quot;&gt;files: 3,133" style="rounded=0;whiteSpace=wrap;html=1;fontSize=14;fontStyle=0" parent="1" vertex="1">
                    <mxGeometry x="740" y="220" width="140" height="80" as="geometry"/>
                </mxCell>
                <mxCell id="5" value="" style="endArrow=classic;html=1;exitX=0.25;exitY=1;exitDx=0;exitDy=0;entryX=0.75;entryY=0;entryDx=0;entryDy=0;fontSize=14;fontStyle=0" parent="1" source="2" target="3" edge="1">
                    <mxGeometry width="50" height="50" relative="1" as="geometry">
                        <mxPoint x="420" y="240" as="sourcePoint"/>
                        <mxPoint x="470" y="190" as="targetPoint"/>
                    </mxGeometry>
                </mxCell>
                <mxCell id="6" value="" style="endArrow=classic;html=1;entryX=0.25;entryY=0;entryDx=0;entryDy=0;exitX=0.75;exitY=1;exitDx=0;exitDy=0;strokeWidth=3;strokeColor=#CC0000;fontSize=14;fontStyle=0" parent="1" source="2" target="4" edge="1">
                    <mxGeometry width="50" height="50" relative="1" as="geometry">
                        <mxPoint x="445" y="131" as="sourcePoint"/>
                        <mxPoint x="470" y="190" as="targetPoint"/>
                    </mxGeometry>
                </mxCell>
                <mxCell id="7" value="Internal error (bug)&lt;br style=&quot;font-size: 14px;&quot;&gt;files: 5" style="rounded=0;whiteSpace=wrap;html=1;fontSize=14;fontStyle=0" parent="1" vertex="1">
                    <mxGeometry x="180" y="360" width="140" height="80" as="geometry"/>
                </mxCell>
                <mxCell id="8" value="Unknown&lt;br style=&quot;font-size: 14px;&quot;&gt;files: 113" style="rounded=0;whiteSpace=wrap;html=1;fontSize=14;fontStyle=0" parent="1" vertex="1">
                    <mxGeometry x="340" y="360" width="140" height="80" as="geometry"/>
                </mxCell>
                <mxCell id="9" value="No organisation header found&lt;br style=&quot;font-size: 14px;&quot;&gt;files: 1,119" style="rounded=0;whiteSpace=wrap;html=1;fontSize=14;fontStyle=0" parent="1" vertex="1">
                    <mxGeometry x="500" y="360" width="140" height="80" as="geometry"/>
                </mxCell>
                <mxCell id="10" value="" style="endArrow=classic;html=1;exitX=0.25;exitY=1;exitDx=0;exitDy=0;entryX=0.75;entryY=0;entryDx=0;entryDy=0;fontSize=14;fontStyle=0" parent="1" source="3" target="7" edge="1">
                    <mxGeometry width="50" height="50" relative="1" as="geometry">
                        <mxPoint x="330" y="450" as="sourcePoint"/>
                        <mxPoint x="380" y="400" as="targetPoint"/>
                    </mxGeometry>
                </mxCell>
                <mxCell id="11" value="" style="endArrow=classic;html=1;exitX=0.5;exitY=1;exitDx=0;exitDy=0;entryX=0.5;entryY=0;entryDx=0;entryDy=0;fontSize=14;fontStyle=0" parent="1" source="3" target="8" edge="1">
                    <mxGeometry width="50" height="50" relative="1" as="geometry">
                        <mxPoint x="330" y="450" as="sourcePoint"/>
                        <mxPoint x="380" y="400" as="targetPoint"/>
                    </mxGeometry>
                </mxCell>
                <mxCell id="12" value="" style="endArrow=classic;html=1;exitX=0.75;exitY=1;exitDx=0;exitDy=0;entryX=0.25;entryY=0;entryDx=0;entryDy=0;fontSize=14;fontStyle=0" parent="1" source="3" target="9" edge="1">
                    <mxGeometry width="50" height="50" relative="1" as="geometry">
                        <mxPoint x="400" y="290" as="sourcePoint"/>
                        <mxPoint x="400" y="380" as="targetPoint"/>
                    </mxGeometry>
                </mxCell>
                <mxCell id="13" value="No sections of interest&lt;br style=&quot;font-size: 14px;&quot;&gt;files: 910" style="rounded=0;whiteSpace=wrap;html=1;fontSize=14;fontStyle=0" parent="1" vertex="1">
                    <mxGeometry x="660" y="360" width="140" height="80" as="geometry"/>
                </mxCell>
                <mxCell id="14" value="Sections of interest&lt;br style=&quot;font-size: 14px;&quot;&gt;files: 2,223&lt;br style=&quot;font-size: 14px;&quot;&gt;sections: 2,978" style="rounded=0;whiteSpace=wrap;html=1;fontSize=14;fontStyle=0" parent="1" vertex="1">
                    <mxGeometry x="820" y="360" width="140" height="80" as="geometry"/>
                </mxCell>
                <mxCell id="15" value="" style="endArrow=classic;html=1;exitX=0.25;exitY=1;exitDx=0;exitDy=0;entryX=0.75;entryY=0;entryDx=0;entryDy=0;fontSize=14;fontStyle=0" parent="1" source="4" target="13" edge="1">
                    <mxGeometry width="50" height="50" relative="1" as="geometry">
                        <mxPoint x="930" y="300" as="sourcePoint"/>
                        <mxPoint x="980" y="250" as="targetPoint"/>
                    </mxGeometry>
                </mxCell>
                <mxCell id="16" value="" style="endArrow=classic;html=1;entryX=0.25;entryY=0;entryDx=0;entryDy=0;exitX=0.75;exitY=1;exitDx=0;exitDy=0;strokeWidth=3;strokeColor=#CC0000;fontSize=14;fontStyle=0" parent="1" source="4" target="14" edge="1">
                    <mxGeometry width="50" height="50" relative="1" as="geometry">
                        <mxPoint x="930" y="330" as="sourcePoint"/>
                        <mxPoint x="980" y="250" as="targetPoint"/>
                    </mxGeometry>
                </mxCell>
                <mxCell id="18" value="Contains validated sections&lt;br style=&quot;font-size: 14px;&quot;&gt;files: 2,055&lt;br style=&quot;font-size: 14px;&quot;&gt;sections: 2,711" style="rounded=0;whiteSpace=wrap;html=1;fontSize=14;fontStyle=0" parent="1" vertex="1">
                    <mxGeometry x="900" y="500" width="120" height="90" as="geometry"/>
                </mxCell>
                <mxCell id="19" value="Contains no validated sections&lt;br style=&quot;font-size: 14px;&quot;&gt;files: 168" style="rounded=0;whiteSpace=wrap;html=1;fontSize=14;fontStyle=0" parent="1" vertex="1">
                    <mxGeometry x="740" y="500" width="140" height="80" as="geometry"/>
                </mxCell>
                <mxCell id="20" value="" style="endArrow=classic;html=1;exitX=0.75;exitY=1;exitDx=0;exitDy=0;entryX=0.25;entryY=0;entryDx=0;entryDy=0;strokeWidth=3;strokeColor=#CC0000;fontSize=14;fontStyle=0" parent="1" source="14" target="18" edge="1">
                    <mxGeometry width="50" height="50" relative="1" as="geometry">
                        <mxPoint x="1060" y="460" as="sourcePoint"/>
                        <mxPoint x="1110" y="410" as="targetPoint"/>
                    </mxGeometry>
                </mxCell>
                <mxCell id="21" value="" style="endArrow=classic;html=1;exitX=0.25;exitY=1;exitDx=0;exitDy=0;entryX=0.75;entryY=0;entryDx=0;entryDy=0;fontSize=14;fontStyle=0" parent="1" source="14" target="19" edge="1">
                    <mxGeometry width="50" height="50" relative="1" as="geometry">
                        <mxPoint x="1020" y="440" as="sourcePoint"/>
                        <mxPoint x="940" y="500" as="targetPoint"/>
                    </mxGeometry>
                </mxCell>
                <mxCell id="22" value="71,69%" style="text;html=1;strokeColor=none;fillColor=none;align=left;verticalAlign=middle;whiteSpace=wrap;rounded=0;fontSize=14;fontStyle=0" vertex="1" parent="1">
                    <mxGeometry x="740" y="170" width="60" height="30" as="geometry"/>
                </mxCell>
                <mxCell id="23" value="50,87%" style="text;html=1;strokeColor=none;fillColor=none;align=left;verticalAlign=middle;whiteSpace=wrap;rounded=0;fontSize=14;fontStyle=0" vertex="1" parent="1">
                    <mxGeometry x="860" y="320" width="60" height="30" as="geometry"/>
                </mxCell>
                <mxCell id="24" value="47,03%" style="text;html=1;strokeColor=none;fillColor=none;align=left;verticalAlign=middle;whiteSpace=wrap;rounded=0;fontSize=14;fontStyle=0" vertex="1" parent="1">
                    <mxGeometry x="930" y="460" width="60" height="30" as="geometry"/>
                </mxCell>
                <mxCell id="25" value="28,31%" style="text;html=1;strokeColor=none;fillColor=none;align=right;verticalAlign=middle;whiteSpace=wrap;rounded=0;fontSize=14;fontStyle=0" vertex="1" parent="1">
                    <mxGeometry x="440" y="170" width="60" height="30" as="geometry"/>
                </mxCell>
                <mxCell id="27" value="2,59%" style="text;html=1;strokeColor=none;fillColor=none;align=left;verticalAlign=middle;whiteSpace=wrap;rounded=0;fontSize=14;fontStyle=0" vertex="1" parent="1">
                    <mxGeometry x="410" y="320" width="60" height="30" as="geometry"/>
                </mxCell>
                <mxCell id="28" value="25,61%" style="text;html=1;strokeColor=none;fillColor=none;align=left;verticalAlign=middle;whiteSpace=wrap;rounded=0;fontSize=14;fontStyle=0" vertex="1" parent="1">
                    <mxGeometry x="520" y="320" width="60" height="30" as="geometry"/>
                </mxCell>
                <mxCell id="29" value="0,11%" style="text;html=1;strokeColor=none;fillColor=none;align=right;verticalAlign=middle;whiteSpace=wrap;rounded=0;fontSize=14;fontStyle=0" vertex="1" parent="1">
                    <mxGeometry x="240" y="320" width="60" height="30" as="geometry"/>
                </mxCell>
                <mxCell id="30" value="3,84%" style="text;html=1;strokeColor=none;fillColor=none;align=right;verticalAlign=middle;whiteSpace=wrap;rounded=0;fontSize=14;fontStyle=0" vertex="1" parent="1">
                    <mxGeometry x="790" y="460" width="60" height="30" as="geometry"/>
                </mxCell>
                <mxCell id="31" value="20,82%" style="text;html=1;strokeColor=none;fillColor=none;align=right;verticalAlign=middle;whiteSpace=wrap;rounded=0;fontSize=14;fontStyle=0" vertex="1" parent="1">
                    <mxGeometry x="700" y="320" width="60" height="30" as="geometry"/>
                </mxCell>
            </root>
        </mxGraphModel>
    </diagram>
</mxfile>